<svg width="312" height="63" viewBox="0 0 312 63" fill="none" xmlns="http://www.w3.org/2000/svg">
<path fill-rule="evenodd" clip-rule="evenodd" d="M49.4277 13.2194L54.8186 0.204468L61.2184 2.85535L56.7838 13.5614C63.0819 14.9464 67.8642 20.3824 68.2521 27.0041H72.1764V34.7017H67.9411C67.1118 38.7801 64.7863 42.4739 61.3812 44.973C59.1621 46.5988 42.6265 58.7424 42.6265 58.7424L37.1095 62.7954H37.0941V48.2324H19.2255C11.513 48.2324 5.18692 42.2738 4.61244 34.7017H0.971558V27.0041H4.85194C6.00488 20.7815 10.5833 15.7495 16.5517 13.9437L11.9593 2.86346L18.3702 0.205124L26.6303 20.1465H19.2332C14.9644 20.1465 11.5124 23.6062 11.5124 27.8672V33.5769C11.5124 37.8456 14.9721 41.2976 19.2332 41.2976H44.0289V49.1031C46.7312 47.1178 49.9619 44.7467 52.5842 42.8223L52.6044 42.8074C54.8477 41.1611 56.6424 39.844 57.2743 39.379C59.8248 37.5143 61.3427 34.5169 61.3427 31.3577V27.8672C61.3427 23.5985 57.883 20.1465 53.622 20.1465H31.5231L28.4795 13.2194H49.4277Z" fill="#74FF6B"/>
<path d="M197.236 50.5742C187.828 50.5742 180.177 42.9228 180.177 33.5146C180.177 24.1064 187.828 16.455 197.236 16.455C206.645 16.455 214.296 24.1064 214.296 33.5146C214.296 42.9228 206.645 50.5742 197.236 50.5742ZM197.236 24.2066C192.105 24.2066 187.928 28.3828 187.928 33.5146C187.928 38.6463 192.105 42.8226 197.236 42.8226C202.368 42.8226 206.544 38.6463 206.544 33.5146C206.544 28.3828 202.368 24.2066 197.236 24.2066Z" fill="white"/>
<path d="M214.296 2.68567H206.544V50.5819H214.296V2.68567Z" fill="white"/>
<path d="M250.018 35.3946L250.079 32.6592C250.118 30.2937 249.771 28.1208 249.024 26.1328C248.276 24.1448 247.213 22.4111 245.818 20.9394C244.431 19.4677 242.79 18.3273 240.902 17.5183C239.014 16.7092 236.949 16.3085 234.715 16.3085C232.265 16.3085 230.022 16.7323 227.965 17.5799C225.915 18.4275 224.143 19.6218 222.648 21.1552C221.154 22.6885 219.998 24.5224 219.166 26.6568C218.333 28.7911 217.925 31.149 217.925 33.7148C217.925 36.9511 218.657 39.8329 220.136 42.3602C221.608 44.8876 223.681 46.8832 226.355 48.3318C229.028 49.7804 232.149 50.5047 235.717 50.5047C237.25 50.5047 238.783 50.3198 240.317 49.9422C241.85 49.5724 243.345 49.0099 244.793 48.2625C246.242 47.5151 247.552 46.6213 248.715 45.5887L244.547 39.6788C243.137 40.796 241.835 41.5897 240.633 42.0443C239.431 42.4989 238.105 42.7301 236.649 42.7301C234.538 42.7301 232.696 42.3371 231.147 41.5511C229.591 40.7652 228.397 39.6325 227.572 38.1608C227.094 37.3209 226.771 36.3886 226.57 35.3946H250.025H250.018ZM230.146 24.9154C231.409 24.1911 232.974 23.8289 234.838 23.8289C236.04 23.8289 237.142 24.0909 238.136 24.6072C239.13 25.1234 239.947 25.8169 240.594 26.6876C241.118 27.3965 241.449 28.2132 241.596 29.1148H226.856C226.979 28.7295 227.117 28.3674 227.279 28.0206C227.919 26.6722 228.874 25.6397 230.138 24.9077L230.146 24.9154Z" fill="white"/>
<path d="M263.279 50.6512L248.831 16.2161H258.917L267.108 39.0547L275.638 16.2161H285.531L270.367 50.6512H263.271H263.279Z" fill="white"/>
<path d="M297.968 50.5047C294.94 50.5047 292.235 50.0039 289.854 49.0099C287.473 48.0159 285.531 46.6058 284.044 44.7874L289.577 40.064C290.864 41.4356 292.281 42.4142 293.838 43.0152C295.394 43.6162 296.982 43.9167 298.592 43.9167C299.17 43.9167 299.709 43.8473 300.21 43.7009C300.711 43.5545 301.142 43.3465 301.52 43.0768C301.89 42.8071 302.175 42.4835 302.36 42.1136C302.545 41.7438 302.637 41.3046 302.637 40.8037C302.637 39.8945 302.267 39.1856 301.52 38.6925C301.189 38.4459 300.58 38.1608 299.686 37.8526C298.792 37.5444 297.667 37.1977 296.296 36.8278C294.185 36.2884 292.397 35.6566 290.948 34.9323C289.5 34.208 288.313 33.3681 287.404 32.4126C286.656 31.6267 286.086 30.7098 285.693 29.6773C285.3 28.6448 285.1 27.5044 285.1 26.2561C285.1 24.2681 285.678 22.5267 286.841 21.0319C288.005 19.5371 289.546 18.3813 291.472 17.5491C293.399 16.7169 295.502 16.3085 297.783 16.3085C299.486 16.3085 301.135 16.5166 302.73 16.9327C304.325 17.3487 305.82 17.9421 307.206 18.7049C308.593 19.4754 309.811 20.3769 310.843 21.4095L306.112 26.6953C305.365 25.9479 304.517 25.2929 303.562 24.7382C302.606 24.1757 301.651 23.7211 300.703 23.3666C299.748 23.0122 298.877 22.8349 298.091 22.8349C297.382 22.8349 296.75 22.8966 296.196 23.0199C295.633 23.1431 295.171 23.3435 294.793 23.6132C294.423 23.8829 294.138 24.2065 293.953 24.5763C293.707 25.0695 293.622 25.6397 293.699 26.2792C293.707 26.3563 293.722 26.441 293.753 26.5104C293.953 27.1345 294.362 27.6893 294.963 28.1747C294.97 28.1747 294.978 28.1901 294.986 28.1901C295.402 28.4367 296.072 28.7218 296.997 29.0531C297.929 29.3845 299.139 29.762 300.634 30.1704C302.622 30.7098 304.302 31.3108 305.673 31.9734C307.045 32.6361 308.139 33.4066 308.971 34.2773C309.718 35.0248 310.242 35.8877 310.558 36.8586C310.867 37.8372 311.028 38.8774 311.028 40.0024C311.028 42.0366 310.458 43.8473 309.318 45.4423C308.177 47.0373 306.621 48.2856 304.656 49.1717C302.683 50.0655 300.457 50.5124 297.968 50.5124V50.5047Z" fill="white"/>
<path d="M149.248 11.2462L149.217 3.37134H131.641L131.664 11.2462H149.248Z" fill="white"/>
<path d="M149.248 50.397L149.217 42.5145H131.641L131.664 50.397H149.248Z" fill="white"/>
<path d="M136.457 10.0674L136.48 41.8981H134.993L116.87 3.42542H110.089L87.7745 50.397H97.3599L113.479 16.1623L129.522 50.397H136.48H140.98H144.347H144.516L144.455 10.0674H136.457Z" fill="white"/>
<path d="M121.015 43.493H96.7743V35.5026H117.694L121.015 43.493Z" fill="white"/>
<path d="M154.541 58.5261H182.172V50.6513H154.541V58.5261Z" fill="#74FF6B"/>
</svg>
